Patient3_NormalGait_1pt4_02_Right_07_GRF.mot																		
version=1																		
nRows=71																		
nColumns=19																		
inDegrees=no																		
endheader																		
time	ground_reaction_force_x	ground_reaction_force_y	ground_reaction_force_z	ground_reaction_moment_x	ground_reaction_moment_y	ground_reaction_moment_z	ground_reaction_force_x1	ground_reaction_force_y1	ground_reaction_force_z1	ground_reaction_moment_x1	ground_reaction_moment_y1	ground_reaction_moment_z1	EC1x	EC1y	EC1z	EC2x	EC2y	EC2z
6.9829	126.9468	700.749	36.4654	-291.5004	35.8211	310.798	2.9941	-9.3837	-1.6333	-3.9068	0.11432	-8.6184	-0.0592	0.0182	-0.0073	-0.0462	0.0165	0.9585
6.9935	139.6041	712.6761	36.7989	-296.6876	41.715	306.6929	4.1214	-3.3066	-0.94362	-1.1021	-1.0743	-2.8976	-0.0592	0.0182	-0.0073	-0.0462	0.0165	0.9585
7.0041	151.1783	716.6058	36.6022	-298.5146	47.4243	299.3188	5.0295	9.9169	0.35976	4.9514	-2.7944	9.3294	-0.0592	0.0182	-0.0073	-0.0462	0.0165	0.9585
7.0148	160.8827	710.5783	35.7433	-296.1591	52.5991	288.2275	5.3091	33.0122	2.4815	15.4696	-5.0732	30.4935	-0.0592	0.0182	-0.0073	-0.0462	0.0165	0.9585
7.0254	167.8939	692.8891	34.0226	-288.9162	56.8983	273.0769	4.2568	68.4253	5.5706	31.5082	-7.7622	62.7925	-0.0592	0.0182	-0.0073	-0.0462	0.0165	0.9585
7.0361	171.2505	662.441	31.327	-276.3291	59.9014	253.8571	1.0081	117.2235	9.5864	53.5035	-10.4267	107.0639	-0.0592	0.0182	-0.0073	-0.0462	0.0165	0.9585
7.0467	170.2059	619.006	27.709	-258.3019	61.214	230.8658	-5.8717	178.2142	14.0844	80.8454	-12.0097	162.096	-0.0592	0.0182	-0.0073	-0.0462	0.0165	0.9585
7.0574	164.2308	563.5004	23.377	-235.2123	60.5339	204.795	-17.4284	248.0831	17.6159	111.9689	-10.6784	224.7188	-0.0592	0.0182	-0.0073	-0.0462	0.0165	0.9585
7.068	153.3629	498.1764	18.6881	-207.9911	57.7338	176.7101	-32.9797	323.7813	18.578	145.3489	-5.2319	292.1214	-0.0592	0.0182	-0.0073	-0.0462	0.0165	0.9585
7.0786	138.2313	426.4458	13.9489	-178.0576	53.0355	147.9396	-50.975	402.4089	16.2175	179.5756	4.3395	361.5336	-0.0592	0.0182	-0.0073	-0.0462	0.0165	0.9585
7.0893	120.1163	352.2932	9.4999	-147.0815	46.9162	119.7748	-70.1006	480.4495	10.0071	213.0263	17.9372	429.687	-0.0592	0.0182	-0.0073	-0.0462	0.0165	0.9585
7.0999	100.5689	279.6197	5.6792	-116.704	39.9512	93.343	-88.7334	554.1151	0.49494	244.1047	34.3054	493.013	-0.0592	0.0182	-0.0073	-0.0462	0.0165	0.9585
7.1106	80.9371	211.8187	2.7731	-88.355	32.6206	69.501	-105.4864	620.6119	-10.7711	271.7238	51.329	548.9345	-0.0592	0.0182	-0.0073	-0.0462	0.0165	0.9585
7.1212	62.2487	151.5847	0.86023	-63.179	25.3467	48.8822	-119.1162	678.1213	-21.8411	295.2928	66.6172	595.8013	-0.0592	0.0182	-0.0073	-0.0462	0.0165	0.9585
7.1319	45.1937	100.8335	-0.16553	-41.9888	18.481	31.8908	-128.7075	725.8772	-31.5821	314.6292	78.8063	632.9573	-0.0592	0.0182	-0.0073	-0.0462	0.0165	0.9585
7.1425	30.35	60.6304	-0.54768	-25.2274	12.3697	18.7335	-134.2135	763.5201	-39.5455	329.6669	87.5175	660.3049	-0.0592	0.0182	-0.0073	-0.0462	0.0165	0.9585
7.1531	18.1465	31.0755	-0.57664	-12.9243	7.3088	9.3012	-135.7518	790.7688	-45.2554	340.3683	92.4644	677.7674	-0.0592	0.0182	-0.0073	-0.0462	0.0165	0.9585
7.1638	8.9327	11.2593	-0.48586	-4.6898	3.524	3.1568	-134.1442	807.8373	-48.9512	346.8117	94.2765	685.9419	-0.0592	0.0182	-0.0073	-0.0462	0.0165	0.9585
7.1744	2.6558	-0.48314	-0.36897	0.18522	0.99751	-0.30149	-130.1134	815.0991	-50.9296	349.1541	93.6086	685.4552	-0.0592	0.0182	-0.0073	-0.0462	0.0165	0.9585
7.1851	-1.1333	-6.2018	-0.25099	2.5592	-0.48299	-1.817	-124.6778	813.3812	-51.5331	347.7057	91.2284	677.4581	-0.0592	0.0182	-0.0073	-0.0462	0.0165	0.9585
7.1957	-3.0489	-7.8416	-0.17664	3.2487	-1.1705	-2.0137	-118.4915	803.5642	-51.2114	342.8313	87.869	662.9407	-0.0592	0.0182	-0.0073	-0.0462	0.0165	0.9585
7.2064	-3.6789	-7.092	-0.12925	2.9483	-1.3498	-1.5094	-112.0444	786.8495	-50.2115	335.0261	83.949	643.1613	-0.0592	0.0182	-0.0073	-0.0462	0.0165	0.9585
7.217	-3.5562	-5.1912	-0.12594	2.1685	-1.2319	-0.69542	-105.4536	764.5666	-48.8059	324.8619	79.7618	619.3104	-0.0592	0.0182	-0.0073	-0.0462	0.0165	0.9585
7.2276	-3.0281	-3.012	-0.1315	1.2604	-0.99101	0.076721	-98.7096	738.1901	-47.0872	312.9759	75.3519	592.6276	-0.0592	0.0182	-0.0073	-0.0462	0.0165	0.9585
7.2383	-2.4272	-1.0124	-0.13082	0.41537	-0.74757	0.70507	-91.7608	709.1391	-45.2044	299.9838	70.809	564.2026	-0.0592	0.0182	-0.0073	-0.0462	0.0165	0.9585
7.2489	-1.8368	0.55031	-0.10598	-0.26435	-0.54774	1.0894	-84.6171	678.7273	-43.2608	286.4608	66.2065	534.9887	-0.0592	0.0182	-0.0073	-0.0462	0.0165	0.9585
7.2596	-1.4103	1.6628	-0.078395	-0.76101	-0.41257	1.3381	-77.3504	648.1852	-41.2818	272.943	61.5861	505.8928	-0.0592	0.0182	-0.0073	-0.0462	0.0165	0.9585
7.2702	-1.0895	2.4061	-0.062722	-1.096	-0.32313	1.5184	-70.0045	618.5031	-39.2246	259.8855	56.9252	477.5403	-0.0592	0.0182	-0.0073	-0.0462	0.0165	0.9585
7.2809	-0.92001	2.8868	-0.067683	-1.3023	-0.27679	1.7095	-62.6972	590.6188	-37.0625	247.6956	52.2271	450.6108	-0.0592	0.0182	-0.0073	-0.0462	0.0165	0.9585
7.2915	-0.82718	3.1822	-0.085208	-1.4093	-0.25122	1.9162	-55.4722	565.1491	-34.8687	236.6537	47.5568	425.4606	-0.0592	0.0182	-0.0073	-0.0462	0.0165	0.9585
7.3021	-0.79052	3.3201	-0.092351	-1.4411	-0.24648	2.1135	-48.4807	542.6184	-32.7176	226.9603	43.0003	402.5259	-0.0592	0.0182	-0.0073	-0.0462	0.0165	0.9585
7.3128	-0.79953	3.3363	-0.098318	-1.4263	-0.24795	2.2587	-41.7441	523.1807	-30.7389	218.6719	38.6666	381.8745	-0.0592	0.0182	-0.0073	-0.0462	0.0165	0.9585
7.3234	-0.80429	3.2501	-0.0705	-1.3808	-0.27261	2.2835	-35.419	506.9739	-29.0518	211.8056	34.6947	363.6945	-0.0592	0.0182	-0.0073	-0.0462	0.0165	0.9585
7.3341	-0.85374	3.1002	-0.031058	-1.3234	-0.31503	2.2106	-29.5334	493.9879	-27.7206	206.3342	31.1423	347.9765	-0.0592	0.0182	-0.0073	-0.0462	0.0165	0.9585
7.3447	-0.86569	2.9218	0.014937	-1.2702	-0.35212	2.0507	-24.1309	484.2645	-26.7556	202.2526	28.0226	334.7733	-0.0592	0.0182	-0.0073	-0.0462	0.0165	0.9585
7.3554	-0.91781	2.7887	0.050069	-1.2402	-0.3825	1.9321	-19.1141	477.8593	-26.1045	199.5772	25.2501	324.0339	-0.0592	0.0182	-0.0073	-0.0462	0.0165	0.9585
7.366	-0.91369	2.7187	0.065195	-1.2362	-0.37591	1.8308	-14.3449	474.8276	-25.6993	198.3389	22.7131	315.6439	-0.0592	0.0182	-0.0073	-0.0462	0.0165	0.9585
7.3766	-0.9269	2.7251	0.053855	-1.2504	-0.34606	1.8599	-9.6613	475.2987	-25.4711	198.5989	20.2939	309.5174	-0.0592	0.0182	-0.0073	-0.0462	0.0165	0.9585
7.3873	-0.90282	2.7907	0.030032	-1.2723	-0.29808	1.9569	-4.9042	479.3362	-25.3548	200.4056	17.8791	305.4813	-0.0592	0.0182	-0.0073	-0.0462	0.0165	0.9585
7.3979	-0.90552	2.8673	-0.006417	-1.2779	-0.25024	2.1223	0.066883	487.0286	-25.3168	203.8052	15.3824	303.4461	-0.0592	0.0182	-0.0073	-0.0462	0.0165	0.9585
7.4086	-0.90093	2.8321	-0.015927	-1.227	-0.22923	2.1528	5.4378	498.3553	-25.3326	208.8004	12.7135	303.2748	-0.0592	0.0182	-0.0073	-0.0462	0.0165	0.9585
7.4192	-0.92798	2.5239	-0.010714	-1.0648	-0.23397	1.9221	11.3519	513.1888	-25.4022	215.3389	9.8121	304.8421	-0.0592	0.0182	-0.0073	-0.0462	0.0165	0.9585
7.4299	-0.96251	1.7896	0.048777	-0.73467	-0.29405	1.2611	17.9707	531.2095	-25.5239	223.282	6.6194	307.8751	-0.0592	0.0182	-0.0073	-0.0462	0.0165	0.9585
7.4405	-1.0044	0.52109	0.14855	-0.1906	-0.39621	0.071659	25.3631	551.826	-25.6831	232.3764	3.0942	311.9285	-0.0592	0.0182	-0.0073	-0.0462	0.0165	0.9585
7.4511	-1.024	-1.303	0.30338	0.5906	-0.53835	-1.6319	33.5483	574.2667	-25.8888	242.2822	-0.76478	316.4779	-0.0592	0.0182	-0.0073	-0.0462	0.0165	0.9585
7.4618	-0.94234	-3.6587	0.48592	1.5985	-0.66619	-3.8111	42.4364	597.5068	-26.151	252.5574	-4.9309	320.8697	-0.0592	0.0182	-0.0073	-0.0462	0.0165	0.9585
7.4724	-0.71978	-6.2578	0.67683	2.7278	-0.73949	-6.1255	51.8867	620.3271	-26.4858	262.6738	-9.3539	324.4043	-0.0592	0.0182	-0.0073	-0.0462	0.0165	0.9585
7.4831	-0.20748	-8.6604	0.8393	3.7795	-0.67232	-8.2165	61.7094	641.3732	-26.9011	272.0471	-13.9629	326.3756	-0.0592	0.0182	-0.0073	-0.0462	0.0165	0.9585
7.4937	0.62156	-9.9829	0.92116	4.3737	-0.39789	-9.2467	71.7007	659.2958	-27.4056	280.086	-18.6712	326.1898	-0.0592	0.0182	-0.0073	-0.0462	0.0165	0.9585
7.5044	1.9057	-9.0032	0.84064	3.9461	0.20231	-8.1887	81.6935	672.8696	-27.9669	286.2417	-23.4218	323.4405	-0.0592	0.0182	-0.0073	-0.0462	0.0165	0.9585
7.515	3.5322	-3.8459	0.47394	1.6683	1.2138	-3.3445	91.5546	680.938	-28.5292	289.9971	-28.1639	317.8317	-0.0592	0.0182	-0.0073	-0.0462	0.0165	0.9585
7.5256	5.4352	7.7316	-0.29693	-3.4675	2.7056	7.1886	101.1108	682.4146	-28.9426	290.8614	-32.8572	309.2193	-0.0592	0.0182	-0.0073	-0.0462	0.0165	0.9585
7.5363	7.2157	28.321	-1.6788	-12.5952	4.7114	25.7155	110.0371	676.1178	-28.9654	288.3235	-37.4138	297.4564	-0.0592	0.0182	-0.0073	-0.0462	0.0165	0.9585
7.5469	8.3287	60.2083	-3.7848	-26.7154	7.0997	54.2296	117.7964	660.8152	-28.3042	281.8683	-41.6567	282.4199	-0.0592	0.0182	-0.0073	-0.0462	0.0165	0.9585
7.5576	7.7794	104.6338	-6.6868	-46.3484	9.5247	93.8	123.6787	635.3599	-26.7179	271.0308	-45.3063	263.9742	-0.0592	0.0182	-0.0073	-0.0462	0.0165	0.9585
7.5682	4.0583	160.746	-10.1241	-71.0826	11.1003	143.5576	126.873	599.0148	-24.1365	255.5193	-47.9651	242.1562	-0.0592	0.0182	-0.0073	-0.0462	0.0165	0.9585
7.5789	-4.2877	225.9894	-13.1273	-99.7385	10.3433	201.2075	126.6227	551.8234	-20.7044	235.3694	-49.1965	217.272	-0.0592	0.0182	-0.0073	-0.0462	0.0165	0.9585
7.5895	-16.8127	298.3064	-14.4173	-131.2838	6.2669	264.917	122.3795	494.9424	-16.7236	211.0855	-48.6467	190.0106	-0.0592	0.0182	-0.0073	-0.0462	0.0165	0.9585
7.6001	-32.1967	375.7843	-13.2645	-164.7626	-1.2175	332.8983	114.1027	430.7879	-12.5663	183.7017	-46.2067	161.4505	-0.0592	0.0182	-0.0073	-0.0462	0.0165	0.9585
7.6108	-49.3917	455.1244	-8.8824	-198.6641	-12.3651	402.0779	102.2666	362.7732	-8.611	154.6726	-42.0401	132.9505	-0.0592	0.0182	-0.0073	-0.0462	0.0165	0.9585
7.6214	-67.0467	531.8686	-1.3515	-231.1025	-26.4957	468.2744	88.004	294.6762	-5.1964	125.6129	-36.6077	105.8072	-0.0592	0.0182	-0.0073	-0.0462	0.0165	0.9585
7.6321	-83.6889	602.2265	8.0307	-260.5461	-41.7139	527.9412	72.7573	230.0098	-2.5527	98.0163	-30.539	81.1164	-0.0592	0.0182	-0.0073	-0.0462	0.0165	0.9585
7.6427	-97.8858	663.5598	17.4884	-286.0213	-55.7214	578.5816	57.8444	171.4678	-0.81228	73.0413	-24.3789	59.5215	-0.0592	0.0182	-0.0073	-0.0462	0.0165	0.9585
7.6534	-108.5292	714.7554	25.9982	-307.137	-67.1681	619.1334	44.1131	120.9699	0.076333	51.5009	-18.5157	41.4608	-0.0592	0.0182	-0.0073	-0.0462	0.0165	0.9585
7.664	-115.2559	755.2726	33.3749	-323.7039	-75.7994	649.2867	31.9863	79.5217	0.30378	33.8321	-13.1879	27.0189	-0.0592	0.0182	-0.0073	-0.0462	0.0165	0.9585
7.6746	-118.0892	784.9452	39.2052	-335.6846	-81.3227	669.1463	21.6426	47.4169	0.16775	20.1609	-8.5782	16.1297	-0.0592	0.0182	-0.0073	-0.0462	0.0165	0.9585
7.6853	-117.6459	804.0564	43.7293	-343.1873	-84.2989	679.3875	13.2071	24.2102	-0.059542	10.3075	-4.8432	8.4273	-0.0592	0.0182	-0.0073	-0.0462	0.0165	0.9585
7.6959	-114.6579	813.2467	47.2241	-346.4739	-85.3575	680.9405	6.832	8.8727	-0.27305	3.8253	-2.046	3.4244	-0.0592	0.0182	-0.0073	-0.0462	0.0165	0.9585
7.7066	-109.966	813.459	49.7425	-345.9413	-84.9359	675.0017	2.4716	-0.10959	-0.43204	0.060487	-0.16951	0.52085	-0.0592	0.0182	-0.0073	-0.0462	0.0165	0.9585
7.7172	-104.3361	805.6147	51.5355	-341.9919	-83.6064	662.6462	-0.1691	-4.4255	-0.54815	-1.7196	0.9437	-0.86019	-0.0592	0.0182	-0.0073	-0.0462	0.0165	0.9585
7.7279	-98.248	790.6875	52.4668	-335.0733	-81.4538	644.8293	-1.5089	-5.6141	-0.62574	-2.1841	1.4887	-1.1896	-0.0592	0.0182	-0.0073	-0.0462	0.0165	0.9585
